<svg xmlns="http://www.w3.org/2000/svg" fill="none" viewBox="0 0 16 16" class="design-iconfont">
  <path fill-rule="evenodd" clip-rule="evenodd" d="M14.1234 5.66854C14.3984 5.64979 14.6484 5.82635 14.7219 6.09041C14.8969 6.7076 14.9859 7.34822 14.9859 7.99666C14.9875 8.64041 14.8984 9.28104 14.7219 9.90135C14.6469 10.1654 14.3969 10.3388 14.1234 10.3232C13.6797 10.292 13.2578 10.517 13.0391 10.9029C12.8172 11.2842 12.8313 11.7592 13.0781 12.1263C13.2297 12.3545 13.2016 12.656 13.0109 12.8529C12.1062 13.7826 10.9609 14.4435 9.70156 14.7592C9.43594 14.8248 9.15938 14.6982 9.0375 14.4529C8.83906 14.0545 8.43906 13.8076 7.99219 13.8076C7.54844 13.8045 7.14219 14.056 6.94688 14.4529C6.825 14.6982 6.54844 14.8248 6.28281 14.7576C5.02344 14.442 3.87656 13.781 2.97344 12.8513C2.78281 12.656 2.75469 12.3545 2.90625 12.1263C3.15469 11.756 3.16875 11.2857 2.94531 10.9013C2.72344 10.5185 2.30312 10.2935 1.86094 10.3217C1.5875 10.3388 1.33906 10.1638 1.26406 9.89979C1.08906 9.2826 1 8.64197 1 7.9951C1 7.35135 1.08906 6.70916 1.26562 6.09041C1.3375 5.82479 1.5875 5.64822 1.8625 5.66854C2.30625 5.69822 2.72656 5.47479 2.94687 5.09041C3.17031 4.70916 3.15469 4.2326 2.90781 3.86541C2.75625 3.63728 2.78438 3.33572 2.975 3.13885C3.87969 2.20916 5.025 1.54822 6.28438 1.2326C6.55 1.16697 6.82656 1.29354 6.94844 1.53885C7.14375 1.93572 7.55 2.18729 7.99375 2.18572C8.4375 2.18729 8.84375 1.93572 9.03906 1.53885C9.16094 1.29354 9.4375 1.16541 9.70312 1.2326C10.9625 1.54979 12.1078 2.20916 13.0109 3.13885C13.2016 3.33416 13.2297 3.63572 13.0781 3.86385C12.8313 4.2326 12.8156 4.7076 13.0391 5.09041C13.2594 5.47322 13.6813 5.69822 14.1234 5.66854ZM12.0297 10.3201C12.3813 9.70604 12.9969 9.28729 13.6984 9.1826C13.8625 8.39822 13.8625 7.59041 13.6984 6.80916C12.9969 6.70604 12.3813 6.28729 12.0297 5.67322C11.6719 5.06229 11.6156 4.32322 11.875 3.66541C11.2766 3.13104 10.575 2.72635 9.8125 2.47635C9.37656 3.02322 8.71406 3.34822 7.99062 3.34822C7.28125 3.35135 6.61094 3.02947 6.16875 2.47635C5.40625 2.72635 4.70312 3.13104 4.10625 3.66541C4.36563 4.32322 4.30938 5.06229 3.95312 5.67322C3.60156 6.28729 2.98594 6.70604 2.28438 6.80916C2.12188 7.59353 2.12188 8.40135 2.28438 9.18416C2.98594 9.28885 3.60156 9.7076 3.95312 10.3217C4.30938 10.9326 4.36563 11.6717 4.10625 12.3295C4.70469 12.8623 5.40625 13.267 6.16875 13.517C6.60938 12.9638 7.28125 12.642 7.99062 12.6451C8.7 12.642 9.37187 12.9638 9.8125 13.517C10.575 13.267 11.2781 12.8623 11.875 12.3279C11.6172 11.6701 11.6734 10.931 12.0297 10.3201Z" fill="#666"/>
  <path fill-rule="evenodd" clip-rule="evenodd" d="M5.07959 7.99502C5.07959 6.39346 6.3874 5.09033 7.99365 5.09033C9.5999 5.09033 10.9062 6.39189 10.9077 7.99502C10.9077 9.59658 9.5999 10.8997 7.99365 10.8997C6.3874 10.8997 5.07959 9.59658 5.07959 7.99502ZM6.24521 7.99502C6.24521 8.95439 7.02959 9.73721 7.99365 9.73721C8.95771 9.73721 9.74209 8.95596 9.74209 7.99502C9.74209 7.03408 8.95771 6.25283 7.99365 6.25283C7.02959 6.25283 6.24521 7.03408 6.24521 7.99502Z" fill="#FA8C16"/>
</svg>
