<svg xmlns="http://www.w3.org/2000/svg" fill="none" viewBox="0 0 16 16" class="design-iconfont">
  <path d="M12.9994 4.49951H2.99743C2.72129 4.49951 2.49743 4.27565 2.49743 3.99951C2.49743 3.72337 2.72129 3.49951 2.99743 3.49951H12.9994C13.2755 3.49951 13.4994 3.72337 13.4994 3.99951C13.4994 4.27565 13.2755 4.49951 12.9994 4.49951ZM2.99743 7.48726H9.14756C9.4237 7.48726 9.64756 7.71112 9.64756 7.98726C9.64756 8.2634 9.4237 8.48726 9.14756 8.48726H2.99743C2.72129 8.48726 2.49743 8.2634 2.49743 7.98726C2.49743 7.71112 2.72129 7.48726 2.99743 7.48726ZM2.99743 11.4972H12.9994C13.2755 11.4972 13.4994 11.721 13.4994 11.9972C13.4994 12.2733 13.2755 12.4972 12.9994 12.4972H2.99743C2.72129 12.4972 2.49743 12.2733 2.49743 11.9972C2.49743 11.721 2.72129 11.4972 2.99743 11.4972ZM11.0151 5.4939L13.5151 7.9939L11.0151 10.4939V5.4939Z" fill="#666"/>
</svg>
