<svg xmlns="http://www.w3.org/2000/svg" fill="none" viewBox="0 0 16 16" class="design-iconfont">
  <path d="M3.00063 4.49951H13.0026C13.2787 4.49951 13.5026 4.27565 13.5026 3.99951C13.5026 3.72337 13.2787 3.49951 13.0026 3.49951H3.00063C2.72449 3.49951 2.50063 3.72337 2.50063 3.99951C2.50063 4.27565 2.72449 4.49951 3.00063 4.49951ZM13.0026 7.48726H6.85244C6.5763 7.48726 6.35244 7.71112 6.35244 7.98726C6.35244 8.2634 6.5763 8.48726 6.85244 8.48726H13.0026C13.2787 8.48726 13.5026 8.2634 13.5026 7.98726C13.5026 7.71112 13.2787 7.48726 13.0026 7.48726ZM13.0026 11.4972H3.00063C2.72449 11.4972 2.50063 11.721 2.50063 11.9972C2.50063 12.2733 2.72449 12.4972 3.00063 12.4972H13.0026C13.2787 12.4972 13.5026 12.2733 13.5026 11.9972C13.5026 11.721 13.2787 11.4972 13.0026 11.4972ZM4.98486 5.4939L2.48486 7.9939L4.98486 10.4939V5.4939Z" fill="#666"/>
</svg>
